<svg id="svg" version="1.1" xmlns="http://www.w3.org/2000/svg" xmlns:xlink="http://www.w3.org/1999/xlink" width="400" height="400" viewBox="0, 0, 400,400"><g id="svgg"><path id="path0" d="M205.703 74.301 C 205.243 74.618,204.597 78.639,202.989 91.200 C 202.665 93.730,202.228 96.970,202.018 98.400 C 201.808 99.830,201.259 103.790,200.797 107.200 C 199.950 113.458,198.848 121.416,197.861 128.400 C 197.565 130.490,197.396 132.335,197.485 132.500 C 197.574 132.665,219.305 132.800,245.775 132.800 C 288.296 132.800,293.961 132.871,294.405 133.406 C 294.936 134.046,293.726 136.145,289.220 142.400 C 288.190 143.830,286.081 146.800,284.534 149.000 C 278.292 157.878,267.802 172.755,261.126 182.200 C 256.127 189.272,248.263 200.431,245.059 205.000 C 243.516 207.200,241.415 210.170,240.391 211.600 C 239.367 213.030,235.926 217.890,232.744 222.400 C 229.562 226.910,224.729 233.750,222.005 237.600 C 214.092 248.781,203.242 264.203,200.053 268.800 C 199.061 270.230,197.696 272.030,197.019 272.800 C 195.819 274.164,193.163 277.852,183.332 291.800 C 174.719 304.022,174.483 304.441,172.300 311.400 C 167.559 326.518,171.598 342.728,181.400 347.927 L 183.400 348.987 253.927 349.333 C 292.717 349.524,324.533 349.601,324.629 349.505 C 324.846 349.287,325.379 346.108,325.987 341.400 C 326.243 339.420,326.801 335.280,327.226 332.200 C 327.652 329.120,328.188 325.160,328.418 323.400 C 328.647 321.640,328.925 319.660,329.035 319.000 C 329.145 318.340,329.573 315.190,329.988 312.000 C 330.402 308.810,331.120 303.320,331.584 299.800 C 332.532 292.611,332.512 292.784,332.447 292.100 C 332.410 291.708,328.641 291.600,315.066 291.600 C 272.853 291.600,236.334 291.093,236.108 290.503 C 235.851 289.835,237.577 287.295,255.751 261.600 C 257.074 259.730,259.280 256.580,260.654 254.600 C 262.028 252.620,265.761 247.310,268.950 242.800 C 272.139 238.290,278.855 228.769,283.874 221.642 C 288.893 214.515,294.092 207.135,295.426 205.242 C 296.760 203.349,300.824 197.570,304.456 192.400 C 308.088 187.230,318.232 172.830,326.999 160.400 C 335.765 147.970,344.650 135.371,346.743 132.403 C 354.732 121.069,356.174 118.538,357.934 112.756 C 362.619 97.370,358.845 81.116,349.479 76.338 C 347.248 75.200,349.609 75.252,278.600 74.798 C 243.840 74.576,213.330 74.297,210.800 74.177 C 208.270 74.058,205.976 74.113,205.703 74.301 " stroke="none" fill="#5b5b5b" fill-rule="evenodd"></path><path id="path1" d="M0.000 200.000 L 0.000 400.000 200.000 400.000 L 400.000 400.000 400.000 200.000 L 400.000 0.000 200.000 0.000 L 0.000 0.000 0.000 200.000 M324.000 73.941 L 348.200 74.200 350.012 75.265 C 360.261 81.291,363.811 98.535,358.190 115.000 C 356.706 119.350,354.503 123.040,347.086 133.600 C 335.115 150.644,323.987 166.480,316.589 177.000 C 312.876 182.280,308.750 188.150,307.419 190.045 C 306.089 191.940,301.310 198.731,296.800 205.138 C 292.290 211.544,287.239 218.724,285.575 221.093 C 282.781 225.071,272.920 239.068,267.605 246.600 C 265.419 249.697,253.923 266.027,249.816 271.867 C 248.707 273.445,245.505 277.987,242.700 281.963 C 239.895 285.938,237.600 289.373,237.600 289.595 C 237.600 289.865,249.595 290.019,273.500 290.057 C 293.245 290.088,314.800 290.223,321.400 290.357 L 333.400 290.600 333.318 293.000 C 333.242 295.233,332.898 298.039,331.379 308.800 C 331.052 311.110,330.331 316.420,329.775 320.600 C 327.852 335.048,327.583 337.028,326.643 343.659 C 326.123 347.321,325.559 350.543,325.388 350.819 C 325.142 351.218,318.516 351.268,293.039 351.062 C 275.418 350.919,244.170 350.701,223.600 350.577 C 200.854 350.440,185.416 350.193,184.200 349.946 C 179.433 348.980,175.496 345.506,172.889 339.967 C 171.093 336.151,171.425 336.178,167.664 339.535 C 159.552 346.775,152.012 350.303,143.102 351.026 C 139.761 351.297,46.226 350.582,35.800 350.205 C 32.940 350.102,29.115 350.014,27.300 350.009 L 24.000 350.000 24.000 348.746 C 24.000 348.056,24.183 346.391,24.406 345.046 C 24.630 343.701,25.162 339.990,25.589 336.800 C 26.834 327.494,28.780 313.220,29.187 310.400 C 29.394 308.970,29.939 305.010,30.397 301.600 C 32.119 288.792,31.480 289.897,37.000 290.184 C 39.200 290.298,65.130 290.603,94.622 290.861 L 148.243 291.330 150.494 290.300 C 156.157 287.708,156.480 286.563,161.199 252.400 C 161.882 247.450,162.781 240.970,163.195 238.000 C 163.609 235.030,164.332 229.810,164.800 226.400 C 165.268 222.990,165.988 217.770,166.400 214.800 C 166.812 211.830,167.532 206.610,168.000 203.200 C 169.785 190.206,170.408 185.711,170.800 183.000 C 171.432 178.632,172.687 169.603,173.608 162.800 C 174.795 154.025,175.935 145.837,176.392 142.800 C 176.607 141.370,177.157 137.410,177.614 134.000 C 178.588 126.725,179.827 117.755,180.402 113.800 C 180.626 112.260,181.091 108.930,181.436 106.400 C 181.780 103.870,182.222 100.630,182.418 99.200 C 182.614 97.770,182.960 95.205,183.187 93.500 C 183.624 90.216,184.218 85.889,184.818 81.600 C 185.018 80.170,185.301 78.010,185.446 76.800 C 185.591 75.590,185.870 74.288,186.065 73.907 C 186.435 73.185,254.843 73.203,324.000 73.941 M216.219 133.969 C 216.007 134.313,214.732 143.013,212.406 160.000 C 211.728 164.950,210.825 171.430,210.400 174.400 C 209.975 177.370,209.075 183.850,208.400 188.800 C 207.725 193.750,206.829 200.230,206.408 203.200 C 205.986 206.170,205.085 212.650,204.404 217.600 C 203.259 225.935,202.175 233.744,201.211 240.600 C 200.995 242.140,200.267 247.450,199.594 252.400 C 198.922 257.350,198.108 263.223,197.785 265.451 C 197.463 267.680,197.200 269.615,197.200 269.751 C 197.200 270.780,198.928 268.579,206.035 258.500 C 210.494 252.175,215.167 245.560,216.417 243.800 C 217.668 242.040,221.353 236.820,224.606 232.200 C 227.860 227.580,231.730 222.090,233.206 220.000 C 235.693 216.482,247.588 199.604,252.800 192.200 C 256.712 186.642,264.491 175.610,268.594 169.800 C 270.769 166.720,273.562 162.760,274.801 161.000 C 279.622 154.149,286.789 143.984,289.976 139.478 C 291.859 136.816,293.160 134.613,292.958 134.429 C 292.474 133.987,216.490 133.531,216.219 133.969 " stroke="none" fill="#fbfbfb" fill-rule="evenodd"></path><path id="path2" d="M204.517 74.043 C 204.217 74.343,201.305 74.466,195.470 74.424 C 187.507 74.367,186.850 74.416,186.648 75.081 C 186.431 75.797,185.578 81.686,183.214 98.800 C 182.530 103.750,181.711 109.600,181.393 111.800 C 181.076 114.000,180.634 117.240,180.412 119.000 C 179.654 125.013,178.465 133.795,177.652 139.400 C 177.205 142.480,176.379 148.510,175.816 152.800 C 175.253 157.090,174.619 161.680,174.406 163.000 C 174.194 164.320,173.644 168.190,173.184 171.600 C 172.724 175.010,171.831 181.490,171.200 186.000 C 170.569 190.510,169.676 196.990,169.216 200.400 C 168.756 203.810,168.208 207.680,167.999 209.000 C 167.790 210.320,166.893 216.710,166.007 223.200 C 165.121 229.690,164.218 236.080,164.002 237.400 C 163.786 238.720,162.518 247.900,161.185 257.800 C 157.723 283.499,156.940 286.591,153.076 289.843 C 149.856 292.552,150.144 292.522,130.200 292.237 C 92.750 291.701,32.990 291.266,32.756 291.528 C 32.622 291.677,32.301 293.420,32.044 295.400 C 31.588 298.904,30.862 304.227,27.575 328.200 C 26.700 334.580,25.807 340.880,25.590 342.200 C 25.373 343.520,25.152 345.585,25.098 346.788 L 25.000 348.976 42.000 349.092 C 51.350 349.155,69.350 349.386,82.000 349.605 C 116.206 350.197,143.582 350.131,146.800 349.449 C 154.798 347.755,160.667 344.654,167.465 338.529 C 170.447 335.843,170.786 335.643,171.365 336.222 C 171.714 336.572,172.000 336.700,172.000 336.509 C 172.000 336.317,171.811 335.971,171.579 335.739 C 169.937 334.097,169.097 323.184,170.167 317.400 C 171.962 307.707,173.710 304.145,183.272 290.708 C 185.505 287.568,189.035 282.570,191.116 279.600 C 193.196 276.630,195.641 273.413,196.549 272.452 C 197.761 271.169,197.944 270.836,197.238 271.199 L 196.276 271.694 196.538 269.347 C 196.781 267.160,197.096 264.834,198.576 254.300 C 200.153 243.074,200.931 237.473,202.008 229.600 C 208.536 181.880,214.259 140.463,215.037 135.311 C 215.145 134.602,215.483 133.882,215.789 133.711 C 216.096 133.540,212.036 133.454,206.768 133.520 C 195.698 133.659,196.499 134.010,197.149 129.307 C 197.385 127.598,198.114 122.330,198.769 117.600 C 199.840 109.873,202.860 87.417,204.059 78.267 C 204.314 76.324,204.778 74.479,205.090 74.167 C 205.402 73.855,205.500 73.600,205.309 73.600 C 205.117 73.600,204.761 73.799,204.517 74.043 M226.700 73.898 C 228.735 73.971,232.065 73.971,234.100 73.898 C 236.135 73.825,234.470 73.766,230.400 73.766 C 226.330 73.766,224.665 73.825,226.700 73.898 M279.700 74.300 C 286.025 74.362,296.375 74.362,302.700 74.300 C 309.025 74.238,303.850 74.187,291.200 74.187 C 278.550 74.187,273.375 74.238,279.700 74.300 M341.513 74.695 C 342.676 74.776,344.476 74.776,345.513 74.693 C 346.551 74.611,345.600 74.545,343.400 74.546 C 341.200 74.547,340.351 74.614,341.513 74.695 M348.000 75.086 C 348.330 75.208,348.960 75.474,349.400 75.676 C 350.187 76.038,350.188 76.034,349.424 75.422 C 348.996 75.080,348.366 74.814,348.024 74.832 C 347.485 74.859,347.482 74.893,348.000 75.086 M360.093 94.000 C 360.093 94.770,360.175 95.085,360.276 94.700 C 360.376 94.315,360.376 93.685,360.276 93.300 C 360.175 92.915,360.093 93.230,360.093 94.000 M360.509 99.200 C 360.509 100.190,360.587 100.595,360.682 100.100 C 360.778 99.605,360.778 98.795,360.682 98.300 C 360.587 97.805,360.509 98.210,360.509 99.200 M242.728 133.500 C 248.298 133.563,257.298 133.562,262.728 133.500 C 268.158 133.437,263.600 133.385,252.600 133.386 C 241.600 133.386,237.158 133.437,242.728 133.500 M246.800 201.200 C 246.330 201.860,246.036 202.400,246.146 202.400 C 246.256 202.400,246.730 201.860,247.200 201.200 C 247.670 200.540,247.964 200.000,247.854 200.000 C 247.744 200.000,247.270 200.540,246.800 201.200 M268.400 244.400 C 267.930 245.060,267.636 245.600,267.746 245.600 C 267.856 245.600,268.330 245.060,268.800 244.400 C 269.270 243.740,269.564 243.200,269.454 243.200 C 269.344 243.200,268.870 243.740,268.400 244.400 M256.000 262.000 C 255.530 262.660,255.236 263.200,255.346 263.200 C 255.456 263.200,255.930 262.660,256.400 262.000 C 256.870 261.340,257.164 260.800,257.054 260.800 C 256.944 260.800,256.470 261.340,256.000 262.000 M274.129 290.700 C 281.130 290.761,292.470 290.761,299.329 290.700 C 306.188 290.638,300.460 290.588,286.600 290.588 C 272.740 290.588,267.128 290.639,274.129 290.700 M326.000 291.058 C 329.348 291.353,333.111 291.376,332.940 291.100 C 332.837 290.935,330.918 290.830,328.676 290.867 C 326.434 290.904,325.230 290.990,326.000 291.058 M177.183 345.700 C 178.841 347.466,179.200 347.784,179.200 347.483 C 179.200 347.419,178.345 346.564,177.300 345.583 L 175.400 343.800 177.183 345.700 M325.109 349.504 L 324.878 350.388 312.539 350.500 L 300.200 350.612 312.451 350.706 C 325.190 350.804,326.034 350.701,325.508 349.124 C 325.416 348.847,325.236 349.018,325.109 349.504 M190.700 349.899 C 193.835 349.967,198.965 349.967,202.100 349.899 C 205.235 349.832,202.670 349.776,196.400 349.776 C 190.130 349.776,187.565 349.832,190.700 349.899 M241.529 350.300 C 249.080 350.361,261.320 350.361,268.729 350.300 C 276.138 350.239,269.960 350.189,255.000 350.189 C 240.040 350.189,233.978 350.239,241.529 350.300 " stroke="none" fill="#c3c3c3" fill-rule="evenodd"></path><path id="path3" d="M205.126 74.131 C 204.773 74.484,204.330 76.204,204.059 78.267 C 202.860 87.417,199.840 109.873,198.769 117.600 C 198.114 122.330,197.385 127.598,197.149 129.307 C 196.913 131.016,196.823 132.683,196.949 133.011 C 197.150 133.536,200.382 133.577,223.689 133.347 C 256.316 133.024,294.000 133.469,294.000 134.176 C 294.000 134.774,292.041 137.585,263.451 178.000 C 261.110 181.309,258.644 184.819,253.477 192.200 C 252.090 194.180,249.874 197.330,248.552 199.200 C 247.230 201.070,241.323 209.440,235.426 217.800 C 229.528 226.160,223.681 234.440,222.431 236.200 C 218.939 241.118,215.251 246.349,206.213 259.200 C 201.649 265.690,197.236 271.720,196.407 272.600 C 195.577 273.480,193.196 276.630,191.116 279.600 C 189.035 282.570,185.505 287.568,183.272 290.708 C 174.846 302.549,173.806 304.407,171.467 311.800 C 169.069 319.378,169.093 331.413,171.515 335.809 C 171.755 336.244,172.592 337.980,173.375 339.667 C 175.091 343.364,178.152 346.849,180.963 348.306 L 183.000 349.361 199.200 349.637 C 208.110 349.789,240.016 350.032,270.102 350.177 L 324.804 350.442 325.202 349.395 C 325.421 348.819,325.580 347.775,325.556 347.074 C 325.517 345.948,325.472 346.004,325.168 347.555 C 324.978 348.521,324.740 349.393,324.638 349.495 C 324.537 349.596,292.717 349.524,253.927 349.333 L 183.400 348.987 181.400 347.927 C 171.598 342.728,167.559 326.518,172.300 311.400 C 174.483 304.441,174.719 304.022,183.332 291.800 C 193.163 277.852,195.819 274.164,197.019 272.800 C 197.696 272.030,199.061 270.230,200.053 268.800 C 203.242 264.203,214.092 248.781,222.005 237.600 C 224.729 233.750,229.562 226.910,232.744 222.400 C 235.926 217.890,239.367 213.030,240.391 211.600 C 241.415 210.170,243.516 207.200,245.059 205.000 C 248.263 200.431,256.127 189.272,261.126 182.200 C 267.802 172.755,278.292 157.878,284.534 149.000 C 286.081 146.800,288.190 143.830,289.220 142.400 C 293.726 136.145,294.936 134.046,294.405 133.406 C 293.961 132.871,288.296 132.800,245.775 132.800 C 219.305 132.800,197.574 132.665,197.485 132.500 C 197.396 132.335,197.554 130.580,197.837 128.600 C 198.120 126.620,198.736 122.210,199.205 118.800 C 199.675 115.390,200.396 110.170,200.807 107.200 C 201.513 102.105,202.128 97.547,204.016 83.400 C 205.185 74.644,205.216 74.478,205.730 74.297 C 205.988 74.206,221.410 74.284,240.000 74.470 C 258.590 74.657,290.450 74.946,310.800 75.113 C 347.774 75.416,347.801 75.417,349.447 76.289 C 354.661 79.053,358.256 85.248,359.723 94.000 C 359.872 94.887,359.897 94.864,359.946 93.792 C 360.217 87.763,354.493 78.086,349.220 75.662 L 347.000 74.641 295.800 74.358 C 267.640 74.203,235.854 73.953,225.164 73.802 C 208.131 73.562,205.654 73.603,205.126 74.131 M360.151 99.600 C 360.151 102.130,360.216 103.165,360.296 101.900 C 360.375 100.635,360.375 98.565,360.296 97.300 C 360.216 96.035,360.151 97.070,360.151 99.600 M359.418 106.218 C 359.265 107.239,359.230 108.163,359.340 108.273 C 359.450 108.383,359.665 107.639,359.818 106.618 C 359.971 105.598,360.006 104.673,359.896 104.563 C 359.786 104.453,359.571 105.198,359.418 106.218 M358.088 112.083 C 356.372 118.237,355.013 120.671,346.743 132.403 C 344.650 135.371,335.765 147.970,326.999 160.400 C 318.232 172.830,308.088 187.230,304.456 192.400 C 300.824 197.570,296.760 203.349,295.426 205.242 C 294.092 207.135,288.893 214.515,283.874 221.642 C 278.855 228.769,272.139 238.290,268.950 242.800 C 265.761 247.310,262.028 252.620,260.654 254.600 C 259.280 256.580,257.074 259.730,255.751 261.600 C 237.577 287.295,235.851 289.835,236.108 290.503 C 236.334 291.093,272.853 291.600,315.066 291.600 C 332.747 291.600,332.580 291.587,332.461 293.000 C 332.417 293.526,330.962 304.611,330.204 310.200 C 329.585 314.756,329.448 317.967,330.007 314.800 C 330.182 313.810,330.708 310.030,331.177 306.400 C 331.646 302.770,332.200 298.720,332.408 297.400 C 332.617 296.080,332.835 294.190,332.894 293.200 L 333.000 291.400 328.400 291.153 C 325.870 291.017,312.625 290.882,298.966 290.853 C 262.203 290.775,236.799 290.359,236.803 289.835 C 236.805 289.596,238.007 287.690,239.475 285.600 C 240.942 283.510,243.338 280.090,244.799 278.000 C 247.473 274.173,248.962 272.057,256.205 261.800 C 258.380 258.720,262.696 252.600,265.796 248.200 C 268.896 243.800,273.845 236.780,276.794 232.600 C 279.742 228.420,283.347 223.290,284.805 221.200 C 286.262 219.110,293.549 208.760,300.997 198.200 C 308.446 187.640,317.449 174.860,321.004 169.800 C 329.112 158.260,341.156 141.132,347.541 132.060 C 353.620 123.424,354.992 121.284,356.265 118.449 C 357.605 115.466,359.290 110.143,359.129 109.403 C 359.058 109.078,358.590 110.284,358.088 112.083 M329.022 318.874 C 328.879 320.043,328.571 322.273,328.337 323.828 C 328.104 325.383,327.986 327.003,328.075 327.428 C 328.165 327.853,328.567 325.718,328.969 322.683 C 329.371 319.649,329.606 317.073,329.491 316.958 C 329.376 316.843,329.165 317.705,329.022 318.874 M327.055 333.600 C 326.661 336.570,326.173 339.978,325.970 341.173 C 325.766 342.369,325.620 343.899,325.645 344.573 C 325.681 345.562,325.752 345.451,326.012 344.000 C 326.746 339.896,328.051 329.562,327.916 328.907 C 327.837 328.518,327.449 330.630,327.055 333.600 " stroke="none" fill="#9c9d9c" fill-rule="evenodd"></path><path id="path4" d="M186.063 73.910 C 185.869 74.290,185.591 75.590,185.446 76.800 C 185.301 78.010,185.018 80.170,184.818 81.600 C 184.218 85.889,183.624 90.216,183.187 93.500 C 182.960 95.205,182.614 97.770,182.418 99.200 C 182.222 100.630,181.780 103.870,181.436 106.400 C 181.091 108.930,180.626 112.260,180.402 113.800 C 179.827 117.755,178.588 126.725,177.614 134.000 C 177.157 137.410,176.607 141.370,176.392 142.800 C 175.935 145.837,174.795 154.025,173.608 162.800 C 172.687 169.603,171.432 178.632,170.800 183.000 C 170.408 185.711,169.785 190.206,168.000 203.200 C 167.532 206.610,166.812 211.830,166.400 214.800 C 165.988 217.770,165.268 222.990,164.800 226.400 C 164.332 229.810,163.609 235.030,163.195 238.000 C 162.781 240.970,161.882 247.450,161.199 252.400 C 156.480 286.563,156.157 287.708,150.494 290.300 L 148.243 291.330 94.622 290.861 C 65.130 290.603,39.200 290.298,37.000 290.184 C 31.480 289.897,32.119 288.792,30.397 301.600 C 29.939 305.010,29.394 308.970,29.187 310.400 C 28.780 313.220,26.834 327.494,25.589 336.800 C 25.162 339.990,24.630 343.701,24.406 345.046 C 24.183 346.391,24.000 348.056,24.000 348.746 L 24.000 350.000 27.300 350.009 C 29.115 350.014,32.940 350.102,35.800 350.205 C 46.226 350.582,139.761 351.297,143.102 351.026 C 152.012 350.303,159.552 346.775,167.664 339.535 C 170.987 336.569,171.411 336.374,171.810 337.630 C 171.954 338.087,172.161 338.372,172.269 338.264 C 172.514 338.019,171.624 336.294,171.065 335.930 C 170.837 335.782,169.199 336.968,167.425 338.566 C 160.668 344.652,154.782 347.759,146.800 349.449 C 143.582 350.131,116.206 350.197,82.000 349.605 C 69.350 349.386,51.350 349.155,42.000 349.092 L 25.000 348.976 25.098 346.788 C 25.152 345.585,25.373 343.520,25.590 342.200 C 25.807 340.880,26.700 334.580,27.575 328.200 C 30.862 304.227,31.588 298.904,32.044 295.400 C 32.301 293.420,32.622 291.677,32.756 291.528 C 32.990 291.266,92.750 291.701,130.200 292.237 C 157.834 292.632,156.256 294.386,161.185 257.800 C 162.518 247.900,163.786 238.720,164.002 237.400 C 164.218 236.080,165.121 229.690,166.007 223.200 C 166.893 216.710,167.790 210.320,167.999 209.000 C 168.208 207.680,168.756 203.810,169.216 200.400 C 169.676 196.990,170.569 190.510,171.200 186.000 C 171.831 181.490,172.724 175.010,173.184 171.600 C 173.644 168.190,174.194 164.320,174.406 163.000 C 174.619 161.680,175.253 157.090,175.816 152.800 C 176.379 148.510,177.205 142.480,177.652 139.400 C 178.465 133.795,179.654 125.013,180.412 119.000 C 180.634 117.240,181.076 114.000,181.393 111.800 C 181.711 109.600,182.530 103.750,183.214 98.800 C 185.578 81.686,186.431 75.797,186.648 75.081 C 186.850 74.416,187.506 74.367,195.441 74.424 C 201.121 74.465,204.192 74.338,204.540 74.050 C 204.878 73.769,208.540 73.575,214.832 73.503 C 220.205 73.441,216.009 73.353,205.509 73.306 C 187.786 73.226,186.392 73.270,186.063 73.910 M256.330 73.900 C 266.742 73.959,283.662 73.959,293.930 73.900 C 304.199 73.840,295.680 73.792,275.000 73.792 C 254.320 73.792,245.919 73.841,256.330 73.900 M322.100 74.300 C 326.665 74.364,334.135 74.364,338.700 74.300 C 343.265 74.235,339.530 74.183,330.400 74.183 C 321.270 74.183,317.535 74.235,322.100 74.300 M348.035 74.782 C 349.605 75.258,351.178 76.333,353.578 78.570 C 354.776 79.686,355.499 80.240,355.185 79.800 C 353.492 77.431,349.296 74.373,347.822 74.434 C 347.145 74.463,347.183 74.524,348.035 74.782 M356.699 82.768 C 357.303 83.850,357.865 84.668,357.947 84.586 C 358.121 84.412,356.057 80.800,355.783 80.800 C 355.683 80.800,356.095 81.686,356.699 82.768 M360.520 95.600 C 360.520 96.810,360.595 97.305,360.687 96.700 C 360.778 96.095,360.778 95.105,360.687 94.500 C 360.595 93.895,360.520 94.390,360.520 95.600 M360.524 103.000 C 360.526 104.320,360.601 104.812,360.690 104.093 C 360.779 103.374,360.777 102.294,360.686 101.693 C 360.595 101.092,360.522 101.680,360.524 103.000 M358.629 112.229 C 358.481 112.815,358.438 113.372,358.532 113.466 C 358.627 113.560,358.824 113.158,358.971 112.571 C 359.119 111.985,359.162 111.428,359.068 111.334 C 358.973 111.240,358.776 111.642,358.629 112.229 M355.493 120.505 C 355.135 121.217,354.456 122.430,353.983 123.200 C 353.510 123.970,353.424 124.240,353.792 123.800 C 354.799 122.595,356.522 119.588,356.320 119.387 C 356.223 119.290,355.851 119.793,355.493 120.505 M351.600 126.600 C 350.919 127.590,350.452 128.400,350.562 128.400 C 350.672 128.400,351.319 127.590,352.000 126.600 C 352.681 125.610,353.148 124.800,353.038 124.800 C 352.928 124.800,352.281 125.610,351.600 126.600 M348.800 130.600 C 348.119 131.590,347.652 132.400,347.762 132.400 C 347.872 132.400,348.519 131.590,349.200 130.600 C 349.881 129.610,350.348 128.800,350.238 128.800 C 350.128 128.800,349.481 129.610,348.800 130.600 M346.400 134.000 C 345.930 134.660,345.636 135.200,345.746 135.200 C 345.856 135.200,346.330 134.660,346.800 134.000 C 347.270 133.340,347.564 132.800,347.454 132.800 C 347.344 132.800,346.870 133.340,346.400 134.000 M215.916 133.623 C 215.540 133.842,215.145 134.602,215.037 135.311 C 214.259 140.463,208.536 181.880,202.008 229.600 C 200.931 237.473,200.153 243.074,198.576 254.300 C 195.787 274.156,195.778 273.955,199.234 268.650 C 200.112 267.302,200.419 266.720,199.915 267.356 C 199.412 267.991,198.700 268.891,198.334 269.356 C 197.252 270.728,197.136 269.941,197.771 265.552 C 198.101 263.268,198.922 257.350,199.594 252.400 C 200.267 247.450,200.995 242.140,201.211 240.600 C 202.175 233.744,203.259 225.935,204.404 217.600 C 205.085 212.650,205.986 206.170,206.408 203.200 C 206.829 200.230,207.725 193.750,208.400 188.800 C 209.075 183.850,209.975 177.370,210.400 174.400 C 210.825 171.430,211.728 164.950,212.406 160.000 C 214.982 141.188,216.030 134.210,216.321 133.919 C 216.487 133.753,220.308 133.564,224.811 133.500 L 233.000 133.382 224.800 133.303 C 219.922 133.256,216.323 133.386,215.916 133.623 M266.167 133.996 C 283.485 134.128,292.976 134.341,293.055 134.600 C 293.122 134.820,290.555 138.690,287.351 143.200 C 280.245 153.201,278.319 156.000,278.540 156.000 C 278.700 156.000,286.653 144.894,291.513 137.885 C 294.783 133.169,297.288 133.586,266.313 133.696 L 239.400 133.791 266.167 133.996 M341.170 141.500 C 339.360 144.085,337.705 146.425,337.491 146.700 C 337.277 146.975,337.201 147.200,337.322 147.200 C 337.442 147.200,339.021 145.085,340.830 142.500 C 342.640 139.915,344.295 137.575,344.509 137.300 C 344.723 137.025,344.799 136.800,344.678 136.800 C 344.558 136.800,342.979 138.915,341.170 141.500 M335.600 149.400 C 334.919 150.390,334.452 151.200,334.562 151.200 C 334.672 151.200,335.319 150.390,336.000 149.400 C 336.681 148.410,337.148 147.600,337.038 147.600 C 336.928 147.600,336.281 148.410,335.600 149.400 M333.200 152.800 C 332.730 153.460,332.436 154.000,332.546 154.000 C 332.656 154.000,333.130 153.460,333.600 152.800 C 334.070 152.140,334.364 151.600,334.254 151.600 C 334.144 151.600,333.670 152.140,333.200 152.800 M327.357 161.100 C 319.837 171.800,318.335 174.000,318.547 174.000 C 318.657 174.000,319.713 172.605,320.894 170.900 C 322.075 169.195,324.813 165.280,326.980 162.200 C 329.147 159.120,331.265 156.105,331.687 155.500 C 332.109 154.895,332.367 154.400,332.260 154.400 C 332.153 154.400,329.946 157.415,327.357 161.100 M276.703 158.300 C 274.549 161.299,273.423 163.053,274.071 162.400 C 274.866 161.599,278.491 156.400,278.254 156.400 C 278.152 156.400,277.454 157.255,276.703 158.300 M271.903 165.100 C 269.749 168.099,268.623 169.853,269.271 169.200 C 270.066 168.399,273.691 163.200,273.454 163.200 C 273.352 163.200,272.654 164.055,271.903 165.100 M267.550 171.300 C 267.052 172.015,266.185 173.221,265.622 173.980 C 265.060 174.739,264.792 175.243,265.027 175.101 C 265.533 174.795,268.941 170.000,268.653 170.000 C 268.544 170.000,268.047 170.585,267.550 171.300 M316.703 176.300 C 314.549 179.299,313.423 181.053,314.071 180.400 C 314.866 179.599,318.491 174.400,318.254 174.400 C 318.152 174.400,317.454 175.255,316.703 176.300 M259.762 182.300 C 257.175 185.985,254.043 190.440,252.803 192.200 C 251.562 193.960,247.247 200.080,243.214 205.800 C 239.181 211.520,235.536 216.695,235.114 217.300 C 234.691 217.905,234.434 218.400,234.542 218.400 C 234.650 218.400,235.527 217.275,236.492 215.900 C 237.456 214.525,241.102 209.350,244.594 204.400 C 253.588 191.651,261.538 180.354,264.087 176.700 C 264.509 176.095,264.767 175.600,264.660 175.600 C 264.553 175.600,262.349 178.615,259.762 182.300 M312.913 181.700 C 311.653 183.339,308.768 187.700,309.275 187.200 C 310.065 186.421,313.728 181.200,313.484 181.200 C 313.382 181.200,313.125 181.425,312.913 181.700 M305.290 192.500 C 303.545 194.975,299.897 200.150,297.185 204.000 C 294.473 207.850,291.174 212.530,289.854 214.400 C 288.534 216.270,286.261 219.510,284.804 221.600 C 283.347 223.690,279.746 228.820,276.802 233.000 C 268.968 244.123,268.603 244.657,269.293 244.000 C 269.842 243.478,274.580 236.809,285.493 221.200 C 287.108 218.890,292.306 211.510,297.043 204.800 C 307.669 189.749,308.877 188.000,308.647 188.000 C 308.546 188.000,307.035 190.025,305.290 192.500 M232.703 220.700 C 230.549 223.699,229.423 225.453,230.071 224.800 C 230.866 223.999,234.491 218.800,234.254 218.800 C 234.152 218.800,233.454 219.655,232.703 220.700 M228.913 226.100 C 227.653 227.739,224.768 232.100,225.275 231.600 C 226.065 230.821,229.728 225.600,229.484 225.600 C 229.382 225.600,229.125 225.825,228.913 226.100 M221.714 236.300 C 217.507 242.240,217.130 242.800,217.339 242.800 C 217.446 242.800,218.573 241.315,219.843 239.500 C 221.113 237.685,222.764 235.345,223.513 234.300 C 224.262 233.255,224.785 232.400,224.675 232.400 C 224.565 232.400,223.233 234.155,221.714 236.300 M215.503 245.100 C 213.349 248.099,212.223 249.853,212.871 249.200 C 213.666 248.399,217.291 243.200,217.054 243.200 C 216.952 243.200,216.254 244.055,215.503 245.100 M266.705 247.300 C 265.058 249.645,255.029 263.878,250.006 271.000 C 247.514 274.533,240.320 284.769,239.113 286.500 C 238.691 287.105,238.436 287.600,238.546 287.600 C 238.656 287.600,240.784 284.703,243.273 281.162 C 245.763 277.620,248.707 273.435,249.816 271.862 C 253.597 266.496,265.344 249.807,267.106 247.300 C 268.072 245.925,268.772 244.800,268.662 244.800 C 268.552 244.800,267.671 245.925,266.705 247.300 M211.200 251.200 C 210.730 251.860,210.436 252.400,210.546 252.400 C 210.656 252.400,211.130 251.860,211.600 251.200 C 212.070 250.540,212.364 250.000,212.254 250.000 C 212.144 250.000,211.670 250.540,211.200 251.200 M209.713 253.300 C 208.453 254.939,205.568 259.300,206.075 258.800 C 206.865 258.021,210.528 252.800,210.284 252.800 C 210.182 252.800,209.925 253.025,209.713 253.300 M204.913 260.100 C 203.653 261.739,200.768 266.100,201.275 265.600 C 202.065 264.821,205.728 259.600,205.484 259.600 C 205.382 259.600,205.125 259.825,204.913 260.100 M237.604 288.595 C 236.072 290.441,235.210 290.396,273.287 290.457 C 292.929 290.488,314.400 290.623,321.000 290.757 L 333.000 291.000 333.262 292.400 L 333.525 293.800 333.462 292.200 L 333.400 290.600 321.400 290.357 C 314.800 290.223,293.245 290.088,273.500 290.057 C 236.272 289.998,236.550 290.010,238.080 288.480 C 238.344 288.216,238.456 288.000,238.329 288.000 C 238.202 288.000,237.876 288.268,237.604 288.595 M332.909 295.600 C 332.909 296.590,332.987 296.995,333.082 296.500 C 333.178 296.005,333.178 295.195,333.082 294.700 C 332.987 294.205,332.909 294.610,332.909 295.600 M332.093 301.600 C 332.093 302.370,332.175 302.685,332.276 302.300 C 332.376 301.915,332.376 301.285,332.276 300.900 C 332.175 300.515,332.093 300.830,332.093 301.600 M331.701 304.600 C 331.705 305.480,331.787 305.793,331.883 305.295 C 331.979 304.798,331.975 304.078,331.875 303.695 C 331.775 303.313,331.696 303.720,331.701 304.600 M331.293 307.600 C 331.293 308.370,331.375 308.685,331.476 308.300 C 331.576 307.915,331.576 307.285,331.476 306.900 C 331.375 306.515,331.293 306.830,331.293 307.600 M330.501 313.400 C 330.505 314.280,330.587 314.593,330.683 314.095 C 330.779 313.598,330.775 312.878,330.675 312.495 C 330.575 312.113,330.496 312.520,330.501 313.400 M330.093 316.400 C 330.093 317.170,330.175 317.485,330.276 317.100 C 330.376 316.715,330.376 316.085,330.276 315.700 C 330.175 315.315,330.093 315.630,330.093 316.400 M329.293 322.400 C 329.293 323.170,329.375 323.485,329.476 323.100 C 329.576 322.715,329.576 322.085,329.476 321.700 C 329.375 321.315,329.293 321.630,329.293 322.400 M328.901 325.400 C 328.905 326.280,328.987 326.593,329.083 326.095 C 329.179 325.598,329.175 324.878,329.075 324.495 C 328.975 324.113,328.896 324.520,328.901 325.400 M328.093 331.200 C 328.093 331.970,328.175 332.285,328.276 331.900 C 328.376 331.515,328.376 330.885,328.276 330.500 C 328.175 330.115,328.093 330.430,328.093 331.200 M327.701 334.200 C 327.705 335.080,327.787 335.393,327.883 334.895 C 327.979 334.398,327.975 333.678,327.875 333.295 C 327.775 332.913,327.696 333.320,327.701 334.200 M172.588 339.400 C 173.461 342.184,179.099 348.847,180.523 348.776 C 180.785 348.764,180.640 348.539,180.200 348.276 C 178.509 347.269,174.942 343.295,173.669 341.000 C 172.936 339.680,172.450 338.960,172.588 339.400 M326.893 340.000 C 326.893 340.770,326.975 341.085,327.076 340.700 C 327.176 340.315,327.176 339.685,327.076 339.300 C 326.975 338.915,326.893 339.230,326.893 340.000 M326.493 342.800 C 326.493 343.570,326.575 343.885,326.676 343.500 C 326.776 343.115,326.776 342.485,326.676 342.100 C 326.575 341.715,326.493 342.030,326.493 342.800 M184.473 350.060 C 184.983 350.203,195.030 350.300,206.800 350.276 C 218.570 350.251,226.400 350.181,224.200 350.119 C 215.190 349.866,183.613 349.819,184.473 350.060 M325.038 350.339 C 324.881 350.593,307.975 350.685,277.098 350.600 L 229.400 350.470 277.159 350.855 C 322.810 351.224,326.506 351.172,325.513 350.180 C 325.385 350.052,325.171 350.123,325.038 350.339 " stroke="none" fill="#cccccc" fill-rule="evenodd"></path></g></svg>