<?xml version="1.0" standalone="no"?>
<!DOCTYPE svg PUBLIC "-//W3C//DTD SVG 20010904//EN"
 "http://www.w3.org/TR/2001/REC-SVG-20010904/DTD/svg10.dtd">
<svg version="1.0" xmlns="http://www.w3.org/2000/svg"
 width="790.000000pt" height="790.000000pt" viewBox="0 0 790.000000 790.000000"
 preserveAspectRatio="xMidYMid meet">
<metadata>
Created by potrace 1.14, written by Peter Selinger 2001-2017
</metadata>
<g transform="translate(0.000000,790.000000) scale(0.100000,-0.100000)"
fill="#000000" stroke="none">
<path d="M3815 7324 c-4 -27 -9 -60 -11 -74 -6 -36 -16 -102 -18 -125 -4 -35
-18 -140 -21 -155 -2 -8 -8 -51 -14 -95 -7 -44 -14 -93 -17 -110 -2 -16 -6
-46 -9 -65 -2 -19 -8 -64 -14 -100 -5 -36 -13 -87 -16 -115 -7 -53 -12 -84
-19 -125 -3 -14 -8 -47 -11 -75 -3 -27 -8 -63 -10 -80 -3 -16 -7 -48 -10 -70
-3 -22 -10 -67 -15 -100 -5 -33 -12 -82 -15 -110 -8 -64 -15 -106 -20 -125 -2
-8 -6 -40 -10 -70 -3 -30 -8 -68 -11 -85 -3 -16 -7 -46 -9 -65 -2 -19 -4 -35
-5 -35 -2 0 -7 -31 -14 -104 -4 -36 -9 -68 -12 -72 -3 -5 -6 -28 -9 -51 -4
-45 -15 -130 -21 -162 -2 -11 -8 -56 -14 -100 -6 -45 -13 -94 -16 -111 -3 -16
-7 -46 -9 -65 -3 -19 -7 -51 -10 -70 -3 -19 -7 -53 -10 -75 -3 -22 -8 -51 -10
-65 -2 -14 -7 -45 -10 -70 -3 -25 -8 -56 -10 -70 -2 -14 -7 -43 -9 -65 -3 -22
-8 -51 -11 -64 -2 -13 -7 -47 -10 -75 -2 -28 -7 -62 -11 -76 -3 -14 -7 -43 -9
-65 -2 -22 -6 -53 -9 -70 -3 -16 -8 -50 -11 -75 -3 -25 -10 -70 -15 -100 -5
-30 -12 -76 -15 -102 -5 -50 -13 -104 -22 -153 -6 -36 -8 -53 -17 -125 -8 -57
-10 -75 -22 -150 -4 -25 -7 -57 -8 -72 -1 -16 -3 -28 -6 -28 -3 0 -5 -10 -6
-22 -1 -31 -13 -127 -19 -158 -3 -14 -7 -43 -10 -65 -3 -22 -7 -49 -9 -60 -2
-11 -7 -47 -11 -80 -4 -33 -9 -71 -12 -85 -2 -14 -6 -41 -8 -60 -2 -19 -7 -46
-9 -60 -3 -14 -8 -49 -11 -79 -4 -30 -9 -63 -11 -75 -3 -12 -7 -41 -9 -66 -11
-101 -34 -158 -86 -213 l-30 -31 -177 3 c-97 1 -181 3 -187 3 -5 -1 -111 -1
-235 -1 -124 0 -233 0 -242 0 -30 0 -317 0 -330 0 -7 0 -78 0 -158 0 -80 0
-152 0 -160 0 -8 0 -78 0 -155 0 -77 0 -147 0 -155 0 -13 0 -430 0 -485 0 -11
0 -133 0 -271 0 l-251 -1 -12 -77 c-15 -95 -18 -116 -26 -173 -3 -25 -8 -56
-10 -70 -2 -14 -7 -45 -10 -70 -3 -25 -8 -58 -11 -75 -3 -16 -9 -61 -14 -100
-5 -38 -11 -79 -14 -90 -2 -11 -7 -42 -10 -70 -4 -27 -11 -75 -16 -105 -5 -30
-11 -77 -15 -105 -5 -44 -10 -77 -21 -138 -2 -10 -6 -46 -9 -80 -4 -34 -8 -64
-10 -67 -4 -7 -18 -108 -19 -145 -1 -17 4 -30 11 -30 6 0 14 -3 18 -7 4 -4 18
-3 31 2 14 6 26 6 29 0 3 -6 15 -6 29 0 13 5 26 6 29 3 8 -7 432 -7 445 1 6 3
13 2 17 -3 3 -7 15 -7 30 -1 15 6 27 6 30 0 3 -6 15 -6 30 0 15 6 27 6 30 0 3
-6 15 -6 30 0 15 6 27 6 30 0 3 -6 15 -6 30 0 15 6 27 6 30 0 3 -6 15 -6 30 0
15 6 27 6 30 0 3 -6 15 -6 30 0 15 6 27 6 30 0 3 -6 15 -6 30 0 15 6 27 6 30
0 3 -6 15 -6 30 0 15 6 27 6 30 0 3 -6 15 -6 30 0 15 6 27 6 30 0 3 -6 15 -6
29 0 13 5 27 6 30 3 8 -8 102 -7 115 1 5 4 12 2 15 -3 4 -6 18 -6 36 -1 17 5
30 6 30 2 0 -4 18 -7 40 -7 22 0 40 3 40 6 0 4 16 3 35 -1 19 -4 35 -4 35 0 0
5 12 5 28 1 15 -5 37 -5 49 0 12 4 25 4 28 -1 3 -5 18 -5 35 0 17 5 30 6 30 2
0 -4 18 -7 40 -7 22 0 40 3 40 6 0 4 16 3 35 -1 19 -4 35 -5 35 -1 0 7 88 6
96 -2 4 -3 17 -2 30 3 14 6 26 6 29 0 3 -5 15 -6 28 -1 12 5 32 5 44 0 13 -5
25 -4 28 1 3 6 15 6 30 0 15 -6 27 -6 30 0 3 6 15 6 30 0 15 -6 27 -6 30 0 3
6 15 6 30 0 15 -6 27 -6 30 0 3 6 15 6 30 0 15 -6 27 -6 30 0 3 6 15 6 30 0
15 -6 27 -6 30 0 3 6 15 6 30 0 15 -6 27 -6 30 0 3 6 15 6 30 0 15 -6 27 -6
30 0 3 6 15 6 30 0 15 -6 27 -6 30 0 3 6 15 6 30 0 15 -6 27 -6 30 0 3 6 15 6
29 0 13 -5 26 -6 30 -3 3 3 34 7 69 8 56 2 140 16 187 31 8 3 15 5 15 4 0 -12
243 117 271 144 6 6 28 25 50 41 21 17 58 49 82 73 25 23 46 41 47 40 1 -2 12
-24 25 -49 58 -119 166 -205 300 -238 54 -14 103 -17 211 -15 78 2 143 5 146
8 3 2 15 1 27 -4 13 -4 29 -4 36 0 9 5 20 4 27 -2 7 -6 13 -6 13 -1 0 5 20 7
48 3 27 -3 61 -3 75 1 15 4 29 4 32 -1 3 -4 20 -4 39 0 19 4 40 4 46 0 7 -4
24 -4 39 0 14 4 36 4 47 0 11 -5 27 -4 35 0 8 5 19 4 26 -2 7 -6 13 -6 13 -1
0 5 20 7 48 3 26 -3 59 -3 72 0 14 4 34 3 46 -1 11 -4 27 -3 34 1 9 5 20 4 27
-2 7 -6 13 -6 13 -1 0 5 20 7 48 3 27 -3 60 -3 74 1 14 4 31 3 38 -1 7 -4 25
-4 40 0 15 4 33 4 40 0 7 -4 24 -4 39 0 14 4 36 4 47 0 11 -5 27 -4 35 0 8 5
19 4 26 -2 7 -6 13 -6 13 -1 0 5 20 7 48 3 26 -3 59 -3 72 0 14 4 34 3 46 -1
11 -4 27 -3 34 1 9 5 20 4 27 -2 7 -6 13 -6 13 -1 0 5 20 7 48 3 27 -3 61 -3
75 1 15 4 29 4 32 -1 3 -4 20 -4 39 0 19 4 40 4 46 0 7 -4 24 -4 39 0 14 4 36
4 47 0 11 -5 27 -4 35 0 8 5 19 4 26 -2 7 -6 13 -6 13 -1 0 5 20 7 48 3 26 -3
59 -3 72 0 14 4 34 3 46 -1 11 -4 27 -3 34 1 9 5 20 4 27 -2 7 -6 13 -6 13 -1
0 5 20 7 48 3 27 -3 60 -3 74 1 14 4 31 3 38 -1 7 -4 24 -5 38 -1 14 4 47 4
74 1 26 -4 53 -3 60 1 6 4 22 3 34 -1 14 -6 26 -5 29 0 3 5 15 6 28 1 12 -5
34 -5 49 -1 14 5 29 6 31 3 7 -7 147 -7 153 0 4 3 17 2 30 -3 14 -6 26 -6 29
0 3 5 16 6 28 1 12 -4 33 -5 47 -1 14 4 34 3 46 -1 11 -4 26 -4 33 1 7 4 22 5
32 3 10 -3 20 0 20 6 1 6 2 19 3 29 14 130 19 170 22 187 5 28 12 82 19 145 3
30 8 73 12 95 7 49 10 72 19 155 8 76 12 105 14 105 0 0 3 18 5 40 6 63 13
117 19 150 3 17 8 59 11 95 3 36 8 76 10 90 6 40 35 263 35 272 0 4 -506 8
-1125 8 -619 0 -1125 3 -1125 8 1 4 43 68 95 142 52 74 100 143 107 154 7 10
18 24 24 30 5 6 13 18 17 26 4 8 39 60 78 115 39 55 86 123 105 150 18 28 48
70 65 95 17 25 50 72 73 105 22 33 43 62 46 65 3 3 19 25 35 50 17 25 33 47
38 48 4 2 7 8 7 13 0 6 5 15 11 22 11 12 83 117 179 257 30 44 71 102 90 129
19 27 41 57 48 67 6 10 32 48 57 84 25 36 50 72 55 80 6 8 37 53 70 100 33 47
64 92 70 100 91 133 261 378 268 386 5 6 21 28 36 50 14 21 42 62 61 89 19 28
45 66 59 85 39 58 265 383 280 405 8 11 91 130 185 265 93 135 205 296 248
358 91 132 148 212 163 229 5 7 10 14 10 17 0 3 41 62 91 133 95 134 141 216
165 292 18 57 41 181 39 209 -1 12 2 22 6 22 5 0 6 6 4 13 -3 6 -7 50 -10 97
-2 47 -8 101 -13 120 -5 19 -9 37 -9 40 0 22 -60 177 -73 190 -3 3 -12 18 -20
35 -27 54 -135 152 -202 184 -62 29 -66 30 -183 25 -66 -3 -126 -5 -132 -5
-12 0 -416 0 -445 0 -7 0 -123 0 -257 1 -134 0 -245 0 -246 -2 -2 -2 -74 -1
-160 2 -86 3 -159 2 -162 -3 -2 -4 -8 -5 -12 -2 -6 3 -336 6 -601 4 -90 -1
-469 0 -480 1 -8 0 -250 3 -537 7 l-521 5 -7 -48z m2468 -1394 c-9 -16 -21
-30 -25 -30 -4 0 -8 -4 -8 -10 0 -9 -64 -106 -80 -120 -5 -5 -94 -136 -115
-169 -5 -9 -19 -28 -30 -42 -11 -14 -26 -35 -33 -45 -6 -10 -76 -111 -155
-224 -78 -113 -164 -237 -190 -275 -27 -39 -82 -117 -123 -175 -41 -58 -77
-112 -81 -120 -3 -8 -12 -22 -20 -30 -7 -8 -65 -89 -128 -180 -62 -91 -117
-170 -122 -176 -4 -5 -12 -17 -18 -26 -12 -20 -226 -329 -237 -343 -30 -37
-158 -228 -158 -235 0 -4 -4 -10 -9 -12 -5 -1 -44 -55 -87 -118 -42 -63 -80
-117 -83 -120 -3 -3 -28 -39 -56 -80 -27 -41 -53 -76 -57 -78 -5 -2 -8 -10 -8
-18 0 -8 -3 -14 -7 -14 -5 0 -21 -21 -38 -48 -16 -26 -35 -51 -42 -55 -7 -4
-13 -12 -13 -17 0 -6 -23 -43 -52 -82 -53 -75 -104 -148 -191 -276 -27 -40
-51 -71 -53 -69 -2 1 1 32 6 67 5 36 12 89 15 119 4 30 9 63 11 75 2 11 6 38
9 61 7 49 16 114 20 136 2 9 6 40 10 69 4 29 8 60 10 69 3 18 15 102 20 141 5
36 14 100 20 140 3 19 7 51 10 70 5 43 14 104 21 148 3 17 7 49 10 70 2 20 7
48 9 62 3 14 7 48 10 75 3 28 10 73 15 100 5 28 12 73 15 100 7 56 54 386 70
490 3 17 7 46 9 65 3 19 8 58 12 85 3 28 8 59 10 69 2 11 8 56 14 100 20 142
21 151 25 176 3 14 7 45 10 70 3 25 7 56 10 70 3 14 7 43 10 65 2 22 7 51 10
64 2 13 7 47 10 75 3 28 8 62 10 76 9 60 17 117 20 140 2 14 4 25 5 25 0 0 3
20 6 45 2 25 6 54 9 65 2 11 4 23 4 28 1 4 402 7 892 7 l890 0 -18 -30z"/>
</g>
</svg>
